<svg id="Lager_1" data-name="Lager 1" xmlns="http://www.w3.org/2000/svg" viewBox="0 0 198.62 249.65"><defs><style>.cls-1{fill:#fff;}.cls-2{fill:none;stroke:#fff;stroke-miterlimit:10;stroke-width:0.75px;}</style></defs><path class="cls-1" d="M72.06,25.41c3.82-7,5.3-14.92,5.76-22.83.24-4.06.22-8.13.15-12.2-.08-4.26-.14-8.54-.51-12.79A50,50,0,0,0,75-34.87c-1.39-3.92-3.47-7.59-4.34-11.68-.92-4.31-.4-8.79-1.17-13.14s-2.66-8.35-4-12.5c-2.69-8.65-4.7-17.53-6.91-26.3-1.79-7.11-3.67-17.73,4.81-21.44,7.74-3.38,11.07,6.82,12.94,12.16l9.27,26.42c1.5,4.28,2.92,8.61,4.52,12.86,1.12,3,2.65,5.82,3.85,8.78A102.57,102.57,0,0,1,97.3-49a73.48,73.48,0,0,0,4.1,11c.62,1.34,1.29,2.67,2,4s2.63.14,1.94-1.14a71.85,71.85,0,0,1-4.49-10.11c-1.25-3.53-2-7.17-3.16-10.74a86.79,86.79,0,0,0-4.19-10.3C91.8-70,90.61-73.88,89.27-77.7l-9.6-27.36c-2.1-6-4-15.16-11-17.34a9.78,9.78,0,0,0-9.08,2.22,14.09,14.09,0,0,0-4.82,9.54c-.46,4.37.6,8.76,1.67,13,1.16,4.61,2.34,9.22,3.51,13.83,1.12,4.41,2.25,8.83,3.63,13.16S67-62.1,67.51-57.52s.11,9,1.39,13.29c1.2,4.09,3.34,7.83,4.54,11.93,2.47,8.39,2.27,17.49,2.32,26.16.06,8.29-.33,16.75-3.08,24.64a37.17,37.17,0,0,1-2.57,5.77c-.69,1.28,1.25,2.41,2,1.14Z" transform="translate(-3.97 145.52)"/><path class="cls-1" d="M110-35.49c-1.2-9.64-2.23-19.3-3-29-.48-6.34-.67-12.69-1-19-.5-8.27-1.6-16.49-2.23-24.75a156,156,0,0,1-.39-15.89A46.1,46.1,0,0,1,104.79-136a10.3,10.3,0,0,1,12.57-7,10.13,10.13,0,0,1,7.44,6.27c.82,2.34.52,4.92.4,7.36a68.59,68.59,0,0,0,2.09,21.69,114.29,114.29,0,0,1,3.6,23.92c.83,14,.88,28,1,42l.06,8.28a1.13,1.13,0,0,0,2.25,0c-.1-14.87,0-29.8-.75-44.66-.48-9.14-1-18.34-3.22-27.27-.68-2.75-1.56-5.44-2.06-8.23a65.36,65.36,0,0,1-.81-13.33c.08-2.91.5-5.91,0-8.8a11.56,11.56,0,0,0-5-7.53c-5.62-3.78-13.92-2.85-17.94,2.77A16,16,0,0,0,102-133.8a82.92,82.92,0,0,0-.88,14.86c.06,9.67,1.37,19.22,2.19,28.84.55,6.45.75,12.92,1.12,19.39.55,9.79,1.54,19.57,2.66,29.31q.35,3,.71,5.91c.18,1.41,2.43,1.43,2.25,0Z" transform="translate(-3.97 145.52)"/><path class="cls-1" d="M112.78-35.17a22.56,22.56,0,0,0-15.43,1.7c-1.29.65-.16,2.59,1.14,1.95A20.06,20.06,0,0,1,112.18-33c1.41.34,2-1.83.6-2.17Z" transform="translate(-3.97 145.52)"/><path class="cls-1" d="M139.89-31.93a62.87,62.87,0,0,0,4.88-18.22A41.28,41.28,0,0,0,145-58c-.18-2.26-.54-4.51-.75-6.78-.77-8.17,0-16.21.66-24.36a116.18,116.18,0,0,0,.55-12.38c-.09-4-.69-8-.64-11.94.08-6,2.82-14.29,10.26-13.88,3.61.2,5.39,2.9,6.07,6.2.8,3.93,1.21,8,1.79,12,2.39,16.33,5.81,32.84,4,49.39-.87,7.81-2.34,15.72-1.35,23.59a32.14,32.14,0,0,0,1.18,5.74,4.34,4.34,0,0,0,2.35,3c2.89,1,4-2.46,4.08-4.65.24-8.17.68-16.13,2.82-24.07,2-7.47,4.88-14.68,6.59-22.23.84-3.76,1.08-7.57,1.7-11.36.54-3.3,1.71-6.81,4.71-8.66s6.17-.59,8.18,2c2.38,3,2.54,7.1,2.66,10.77q.21,6.24.38,12.48c.13,4,.44,8.06-.73,11.9-1.08,3.57-3.22,6.71-4.37,10.26a38.22,38.22,0,0,0-1.48,10.54c-.11,3.7,0,7.42-.45,11.1a25.6,25.6,0,0,1-1.27,5.54c-.59,1.67-1.45,3.22-2.07,4.87a9.76,9.76,0,0,0-.69,4.83,19,19,0,0,0,1.76,5c1.61,3.64,2.09,7.6,2.47,11.51q1.19,12.31,2.35,24.63c.77,8.08,1.49,16.36-.54,24.32-1.76,6.92-5.18,13.23-8.25,19.62a95.64,95.64,0,0,0-4.14,9.73c-1.08,3.09-1.7,6.27-2.53,9.42-.75,2.85-1.74,5.82-4,7.88s-5.51,2.69-8.55,2.51c-6.19-.39-11.71-3.59-17.77-4.63-13-2.21-25,3.52-37.52,5.51A38.19,38.19,0,0,1,93.53,100c-4.72-1.7-8.81-4.81-12.49-8.15a89.76,89.76,0,0,1-10.7-12,85.2,85.2,0,0,0-11.93-12.6,34.46,34.46,0,0,1-8.72-10.73,45.57,45.57,0,0,1-2.21-6.12,19.51,19.51,0,0,0-3-5.91c-3.73-4.89-9.07-8.4-14.07-11.87A54.87,54.87,0,0,1,24.18,28a30.51,30.51,0,0,1-3.62-4.82,36.12,36.12,0,0,0-5.93-6.78c-2.4-2-5-3.95-6.74-6.62C6.3,7.31,5.43,4.8,7.3,2.25a13.39,13.39,0,0,1,6-4.21A23.59,23.59,0,0,1,34.21.1,43.31,43.31,0,0,1,47.05,11.93a13.35,13.35,0,0,0,7,5.16c2.69.8,5.4.54,7.89,2C64.24,20.5,66,22.57,68,24.31a18.24,18.24,0,0,0,6.34,3.76c5.26,1.68,11,.31,15.92-1.72,1.33-.54.75-2.72-.59-2.17-5,2-10.89,3.56-16,1.23s-8-7.87-13.49-9.51a33.45,33.45,0,0,0-4.11-.64,10.57,10.57,0,0,1-5-2.22c-1.82-1.49-3-3.6-4.49-5.37A42.47,42.47,0,0,0,30.82-4.09,24.9,24.9,0,0,0,10.23-3,13.09,13.09,0,0,0,4.91,1.81C3.5,4.27,3.79,6.77,5,9.23a23.44,23.44,0,0,0,6.51,7.47,36.06,36.06,0,0,1,6.3,6.47,64.16,64.16,0,0,0,4.06,5.68,34.3,34.3,0,0,0,5.66,4.53C32.7,37,38.35,40.47,42.35,45.45c2.94,3.65,3.41,8.26,5.47,12.35a36,36,0,0,0,9,11A83.24,83.24,0,0,1,68.93,81.69a84.08,84.08,0,0,0,11.3,12.4,40.18,40.18,0,0,0,12.7,8,39.84,39.84,0,0,0,19,1.53c6.54-.91,12.82-3,19.23-4.47s13.22-2.33,19.82-.89c6,1.32,11.56,4.41,17.87,4.43a13.3,13.3,0,0,0,8.53-2.75,15.18,15.18,0,0,0,4.51-7.43c1-3.06,1.49-6.25,2.42-9.32A76.7,76.7,0,0,1,188.42,73c3.12-6.59,6.69-13,8.66-20.1,2.22-7.92,1.8-16.15,1-24.25-.78-8.46-1.62-16.93-2.43-25.39a47.89,47.89,0,0,0-2-11.46c-.62-1.75-1.57-3.37-2.09-5.15a8,8,0,0,1,.56-5.5c.7-1.69,1.54-3.29,2.11-5a29,29,0,0,0,1.14-5.53c.45-3.76.34-7.55.46-11.32a32.82,32.82,0,0,1,1.91-11.16c1.41-3.55,3.54-6.78,4.29-10.58s.46-8,.34-12c-.13-4.2-.21-8.41-.4-12.6-.16-3.58-.61-7.4-2.78-10.38-1.77-2.45-4.6-4.36-7.74-4.13a9.62,9.62,0,0,0-7.16,4.74c-2,3-2.34,6.79-2.73,10.32-.87,8-3.43,15.55-5.85,23.19a95.85,95.85,0,0,0-4.63,23.71c-.12,2.1-.18,4.19-.21,6.29,0,.71.2,3.73-1,3.76s-1.71-4.07-1.87-4.92a37,37,0,0,1-.59-6.12c-.18-8.19,1.61-16.24,2.13-24.39.54-8.49-.47-17-1.67-25.38s-2.46-16.85-3.69-25.27c-.52-3.52-.61-7.69-2.76-10.68a8.51,8.51,0,0,0-7.42-3.29c-6.72.39-10.44,6.63-11.27,12.71-.54,4,0,8,.24,12a89.82,89.82,0,0,1-.14,12.6c-.6,8.49-1.73,16.93-1.09,25.45.39,5.08,1.26,10,.86,15.08A59.7,59.7,0,0,1,138-33.06c-.57,1.31,1.37,2.46,1.94,1.13Z" transform="translate(-3.97 145.52)"/><path class="cls-1" d="M129.64-31.53a73.46,73.46,0,0,1,22.44,2.14,1.13,1.13,0,0,0,.6-2.17,75.79,75.79,0,0,0-23-2.22c-1.44.08-1.45,2.33,0,2.25Z" transform="translate(-3.97 145.52)"/><path class="cls-1" d="M72.61,25.72c4.19-.3,8.57-.68,12.14-3.13a15.33,15.33,0,0,0,6.15-8.74,1.13,1.13,0,0,0-2.17-.6,13,13,0,0,1-5.33,7.54c-3.2,2.11-7.07,2.42-10.79,2.68-1.44.1-1.45,2.35,0,2.25Z" transform="translate(-3.97 145.52)"/><path class="cls-1" d="M100.45,6.6a56.88,56.88,0,0,1,32.42,6c1.28.67,2.42-1.27,1.14-1.94a59,59,0,0,0-33.56-6.31c-1.43.16-1.44,2.41,0,2.25Z" transform="translate(-3.97 145.52)"/><path class="cls-1" d="M110.78-15.73C119.65-8.7,129.5.85,141.65.44a1.13,1.13,0,0,0,0-2.25c-5.58.19-10.7-2-15.33-5a167.72,167.72,0,0,1-13.95-10.54c-1.13-.89-2.73.7-1.59,1.59Z" transform="translate(-3.97 145.52)"/><path class="cls-1" d="M164.41,17.1a88,88,0,0,1,13.47.74A1.12,1.12,0,0,0,179,16.72a1.15,1.15,0,0,0-1.12-1.13,88,88,0,0,0-13.47-.74,1.13,1.13,0,0,0,0,2.25Z" transform="translate(-3.97 145.52)"/><path class="cls-1" d="M118.52,26c3.23,2.48,4.75,6.5,6.1,10.2q2.61,7.22,5.2,14.42c.49,1.35,2.66.77,2.17-.6-1.86-5.16-3.68-10.35-5.6-15.49-1.49-4-3.29-7.82-6.73-10.48-1.15-.88-2.27,1.07-1.14,1.95Z" transform="translate(-3.97 145.52)"/><path class="cls-1" d="M135.69,61A117.62,117.62,0,0,0,138,83.09c.28,1.42,2.45.82,2.16-.6A115.37,115.37,0,0,1,137.94,61a1.13,1.13,0,0,0-2.25,0Z" transform="translate(-3.97 145.52)"/><path class="cls-1" d="M140.34,46.84a30.76,30.76,0,0,1,5.46-9.61,1.16,1.16,0,0,0,0-1.59,1.13,1.13,0,0,0-1.59,0,34,34,0,0,0-6,10.6,1.14,1.14,0,0,0,.78,1.38,1.16,1.16,0,0,0,1.39-.78Z" transform="translate(-3.97 145.52)"/><path class="cls-1" d="M51.62,14.42a22.21,22.21,0,0,0-14.34,8.83,1.13,1.13,0,0,0,.4,1.54,1.16,1.16,0,0,0,1.54-.41A22.09,22.09,0,0,1,43.72,20a19.49,19.49,0,0,1,8.5-3.4A1.13,1.13,0,0,0,53,15.21a1.15,1.15,0,0,0-1.38-.79Z" transform="translate(-3.97 145.52)"/><path class="cls-1" d="M68.28,31.58a16.78,16.78,0,0,1,0,8.21,1.13,1.13,0,0,0,2.17.6,19.21,19.21,0,0,0,0-9.41,1.13,1.13,0,0,0-2.17.6Z" transform="translate(-3.97 145.52)"/><path class="cls-1" d="M62.38,54.83a6,6,0,0,0-1.11,3.34,1.13,1.13,0,0,0,2.25,0c0-.17,0-.35,0-.52l0,.3a5.09,5.09,0,0,1,.35-1.27l-.11.27a5.36,5.36,0,0,1,.56-1,1.12,1.12,0,0,0,.11-.86,1.17,1.17,0,0,0-.51-.68,1.2,1.2,0,0,0-.87-.11l-.27.11a1.12,1.12,0,0,0-.4.41Z" transform="translate(-3.97 145.52)"/><path class="cls-1" d="M77.52-19.72A20.48,20.48,0,0,0,92.9-31.28a1.15,1.15,0,0,0-.41-1.53,1.13,1.13,0,0,0-1.54.4,18.39,18.39,0,0,1-14,10.52,1.14,1.14,0,0,0-.79,1.39,1.15,1.15,0,0,0,1.38.78Z" transform="translate(-3.97 145.52)"/><path class="cls-1" d="M87-63a37.09,37.09,0,0,0-12.38.71c-1.41.32-.82,2.49.6,2.17A35.33,35.33,0,0,1,87-60.71a1.13,1.13,0,0,0,1.13-1.12A1.16,1.16,0,0,0,87-63Z" transform="translate(-3.97 145.52)"/><path class="cls-1" d="M75.39-90.84a12.09,12.09,0,0,0-6.13,1.08,1.14,1.14,0,0,0-.4,1.54,1.16,1.16,0,0,0,1.54.4l.18-.08c-.11.05-.11.05,0,0l.28-.11c.22-.08.44-.16.66-.22a12.6,12.6,0,0,1,1.32-.31l.15,0a2.85,2.85,0,0,1,.29,0c.24,0,.47,0,.7,0a9.32,9.32,0,0,1,1.4,0,1.14,1.14,0,0,0,1.13-1.13,1.15,1.15,0,0,0-1.13-1.12Z" transform="translate(-3.97 145.52)"/><path class="cls-1" d="M121.57-107.38a21.78,21.78,0,0,0-11.77,1.11,1.15,1.15,0,0,0-.79,1.38,1.14,1.14,0,0,0,1.39.79A19.66,19.66,0,0,1,121-105.21a1.15,1.15,0,0,0,1.38-.79,1.13,1.13,0,0,0-.78-1.38Z" transform="translate(-3.97 145.52)"/><path class="cls-1" d="M124.07-73.27l-10.19-.54a1.14,1.14,0,0,0-1.13,1.12,1.15,1.15,0,0,0,1.13,1.13l10.19.54a1.14,1.14,0,0,0,1.13-1.13,1.15,1.15,0,0,0-1.13-1.12Z" transform="translate(-3.97 145.52)"/><path class="cls-1" d="M161.75-97.67a13,13,0,0,0-10.13-1.84,1.14,1.14,0,0,0-.79,1.39,1.14,1.14,0,0,0,1.38.78,10.72,10.72,0,0,1,8.4,1.61,1.14,1.14,0,0,0,1.54-.4,1.15,1.15,0,0,0-.4-1.54Z" transform="translate(-3.97 145.52)"/><path class="cls-1" d="M161-66.16a44,44,0,0,0-11.41-1.57,1.13,1.13,0,0,0,0,2.25A41.58,41.58,0,0,1,160.38-64a1.13,1.13,0,0,0,.6-2.17Z" transform="translate(-3.97 145.52)"/><path class="cls-1" d="M183.42-53.07a9.48,9.48,0,0,1,1.07,0c.35,0-.22,0,.14,0l.35.06.73.19a6.21,6.21,0,0,1,1.24.54c.2.11.4.24.59.37l.2.14.18.14a8.86,8.86,0,0,1,.82.8l.35.42,0,0,.14.19a9.43,9.43,0,0,1,.69,1.19,1.13,1.13,0,0,0,1.54.41,1.15,1.15,0,0,0,.4-1.54,9.24,9.24,0,0,0-8.47-5.26,1.15,1.15,0,0,0-1.13,1.12,1.16,1.16,0,0,0,1.13,1.13Z" transform="translate(-3.97 145.52)"/><path class="cls-1" d="M188.26-72.53l.17.07c.22.08-.25-.11,0,0l.31.15c.2.1.4.21.59.33a2.9,2.9,0,0,1,.29.19l.15.1c.07,0,.22.2,0,0l.52.44c.16.16.32.32.47.49l.22.26c.16.2-.09-.12,0,0l.09.13a7.15,7.15,0,0,1,.71,1.23,1.1,1.1,0,0,0,.67.52,1.2,1.2,0,0,0,.87-.11,1.13,1.13,0,0,0,.51-.68,1.28,1.28,0,0,0-.11-.86,8.45,8.45,0,0,0-4.77-4.36,1.14,1.14,0,0,0-1.39.79,1.16,1.16,0,0,0,.79,1.38Z" transform="translate(-3.97 145.52)"/><path class="cls-1" d="M175.72-21.34a15,15,0,0,1,8.4,4.64,1.13,1.13,0,0,0,1.59,0,1.14,1.14,0,0,0,0-1.59,16.93,16.93,0,0,0-9.39-5.22,1.15,1.15,0,0,0-1.39.78,1.15,1.15,0,0,0,.79,1.39Z" transform="translate(-3.97 145.52)"/><path class="cls-1" d="M77.71,3.3a47.87,47.87,0,0,0,9.64-14.15,1.17,1.17,0,0,0-.4-1.54,1.13,1.13,0,0,0-1.54.41A46.44,46.44,0,0,1,76.12,1.71c-1,1,.58,2.63,1.59,1.59Z" transform="translate(-3.97 145.52)"/><path class="cls-2" d="M103.92-41.49" transform="translate(-3.97 145.52)"/></svg>